<?xml version="1.0" encoding="utf-8"?>
<!-- Generator: Adobe Illustrator 19.0.0, SVG Export Plug-In . SVG Version: 6.00 Build 0)  -->
<svg version="1.1" baseProfile="tiny" xmlns="http://www.w3.org/2000/svg" xmlns:xlink="http://www.w3.org/1999/xlink" x="0px"
	 y="0px" width="1000px" height="1000px" viewBox="0 0 1000 1000" xml:space="preserve">
<g id="New_Symbol_16_1_">
	<g>
		<path fill="#FFFF00" d="M285.1,718.3c0,9.3-7.5,16.8-16.8,16.8h-67.2c-9.3,0-16.8-7.5-16.8-16.8V381.9c0-9.3-7.5-16.8-16.8-16.8h0
			c-9.3,0-16.8,7.5-16.8,16.8v336.4c0,9.3-7.5,16.8-16.8,16.8H66.8c-9.3,0-16.8-7.5-16.8-16.8V382.5c0-64.9,52.6-117.5,117.5-117.5
			s117.5,52.6,117.5,117.5V718.3z"/>
		<path fill="#FFFF00" d="M432.8,264.9c-64.9,0-117.5,52.6-117.5,117.5v250.1c0,64.9,52.6,117.5,117.5,117.5
			c64.9,0,117.5-52.6,117.5-117.5V382.5C550.4,317.6,497.7,264.9,432.8,264.9z M449.6,633.1c0,9.3-7.5,16.8-16.8,16.8h0
			c-9.3,0-16.8-7.5-16.8-16.8V381.9c0-9.3,7.5-16.8,16.8-16.8h0c9.3,0,16.8,7.5,16.8,16.8V633.1z"/>
		<path fill="#FFFF00" d="M950,382.5v335.8c0,9.3-7.5,16.8-16.8,16.8H866c-9.3,0-16.8-7.5-16.8-16.8V381.9c0-9.3-7.5-16.8-16.8-16.8
			h0c-9.3,0-16.8,7.5-16.8,16.8v336.4c0,9.3-7.5,16.8-16.8,16.8h-67.2c-9.3,0-16.8-7.5-16.8-16.8V381.9c0-9.3-7.5-16.8-16.8-16.8h0
			c-9.3,0-16.8,7.5-16.8,16.8v336.4c0,9.3-7.5,16.8-16.8,16.8h-67.2c-9.3,0-16.8-7.5-16.8-16.8V382.5c0-64.9,52.6-117.5,117.5-117.5
			c25,0,48.1,7.8,67.2,21.1c19-13.3,42.2-21.1,67.2-21.1C897.4,264.9,950,317.6,950,382.5z"/>
	</g>
</g>
<g id="Layer_3" display="none">
	<rect x="-50" y="125" display="inline" fill="none" stroke="#000000" stroke-miterlimit="10" width="1100" height="1100"/>
</g>
</svg>
