<?xml version="1.0" encoding="utf-8"?>
<!-- Generator: Adobe Illustrator 16.0.0, SVG Export Plug-In . SVG Version: 6.00 Build 0)  -->
<!DOCTYPE svg PUBLIC "-//W3C//DTD SVG 1.1 Tiny//EN" "http://www.w3.org/Graphics/SVG/1.1/DTD/svg11-tiny.dtd">
<svg version="1.1" baseProfile="tiny" id="Ebene_1" xmlns="http://www.w3.org/2000/svg" xmlns:xlink="http://www.w3.org/1999/xlink"
	 x="0px" y="0px" width="300px" height="259.836px" viewBox="-100 -79.918 300 259.836" xml:space="preserve">
<g>
	<g>
		<path fill="#D1D2D3" d="M198.077,54.168c0,61.479-33.259,111.322-74.309,111.322c-41.069,0-74.378-49.831-74.378-111.322
			c0-61.524,33.315-111.321,74.378-111.321C164.833-57.153,198.077-7.343,198.077,54.168"/>
		<path fill="#D1D2D3" d="M48.696,55.025c0,61.479-33.253,111.331-74.317,111.331C-66.676,166.356-100,116.52-100,55.025
			C-100-6.5-66.676-56.291-25.621-56.291C15.447-56.291,48.696-6.481,48.696,55.025"/>
	</g>
	<path fill="#E7E6E6" d="M198.414,43.404c0,61.479-33.253,111.317-74.303,111.317c-41.07,0-74.379-49.832-74.379-111.317
		c0-61.525,33.314-111.322,74.379-111.322C165.17-67.918,198.414-18.103,198.414,43.404"/>
	<ellipse fill="#25333A" cx="99.567" cy="53.752" rx="34.769" ry="42.141"/>
	<path fill="#E7E6E6" d="M49.039,44.248c0,61.479-33.253,111.322-74.323,111.322c-41.054,0-74.379-49.835-74.379-111.322
		c0-61.526,33.325-111.319,74.379-111.319C15.785-67.071,49.039-17.259,49.039,44.248"/>
	<ellipse fill="#25333A" cx="-53.707" cy="54.604" rx="34.781" ry="42.141"/>
</g>
</svg>
